<svg version="1.0" xmlns="http://www.w3.org/2000/svg"
 width="512.000000pt" height="512.000000pt" viewBox="0 0 512.000000 512.000000"
 preserveAspectRatio="xMidYMid meet">

<g transform="translate(0.000000,512.000000) scale(0.100000,-0.100000)"
fill="#323232" stroke="none">
<path d="M1835 4843 c-33 -9 -55 -34 -55 -64 0 -19 16 -46 51 -86 201 -230
341 -491 423 -791 l25 -94 -83 79 c-370 356 -928 451 -1190 203 -67 -63 -88
-102 -74 -141 12 -35 22 -38 146 -49 258 -23 472 -85 712 -205 113 -57 125
-72 52 -62 -20 2 -88 0 -150 -5 -470 -38 -852 -331 -852 -653 0 -71 25 -115
65 -115 13 0 73 34 134 75 320 216 656 322 1081 341 127 6 143 5 130 -8 -8 -8
-58 -51 -111 -95 -205 -175 -424 -427 -561 -649 -235 -380 -354 -773 -429
-1425 l-23 -196 -75 -18 c-120 -28 -377 -114 -391 -130 -30 -36 -1 -105 45
-105 12 0 61 14 111 30 314 107 551 149 884 157 233 5 388 -5 565 -38 57 -10
62 -13 97 -65 l37 -54 -220 0 -220 0 -24 -25 c-30 -29 -32 -58 -5 -85 20 -20
33 -20 1263 -20 1192 0 1245 1 1260 18 25 27 22 78 -5 96 -19 13 -60 16 -245
16 l-222 0 16 37 c31 75 1 194 -64 255 -15 14 -108 80 -206 146 l-178 120 238
4 c227 3 239 4 269 25 47 33 56 67 52 184 l-3 102 -36 30 -36 30 133 217 c73
119 135 231 139 250 10 58 -28 119 -97 154 -66 33 -109 31 -156 -9 -16 -13
-109 -155 -206 -315 -108 -176 -184 -290 -193 -290 -11 0 -13 5 -8 17 47 114
13 238 -78 282 -24 12 -54 21 -68 21 -13 0 -83 -20 -156 -44 l-131 -43 -154
85 c-84 47 -186 100 -227 118 l-74 32 52 27 c69 34 127 94 160 164 22 47 26
70 26 141 0 71 -4 94 -27 142 -123 263 -492 270 -620 10 -29 -59 -33 -76 -33
-152 0 -71 4 -94 27 -142 29 -63 95 -135 146 -159 l32 -16 -40 -18 c-52 -23
-114 -85 -151 -150 l-29 -50 0 -479 0 -479 -47 7 c-114 17 -281 35 -319 36
l-41 0 -12 103 c-47 400 -6 753 140 1215 97 306 299 726 438 910 l16 22 75
-46 c256 -159 488 -380 644 -613 59 -89 141 -243 176 -331 27 -69 46 -90 80
-90 50 0 118 101 141 211 15 71 5 227 -20 306 -84 269 -329 542 -604 675 -44
21 -47 23 -25 29 37 11 173 10 298 -2 209 -19 407 -69 594 -150 49 -22 99 -39
111 -39 68 0 74 108 12 233 -84 170 -292 303 -553 353 -131 25 -340 23 -474
-5 -85 -18 -196 -56 -286 -97 -8 -4 -10 38 -6 145 4 115 1 172 -13 248 -45
253 -152 469 -307 620 -76 75 -117 104 -206 146 -59 27 -79 32 -162 34 -52 1
-104 -1 -115 -4z m267 -170 c160 -87 306 -300 375 -549 25 -90 28 -114 28
-274 0 -159 -2 -182 -24 -250 l-25 -75 -8 60 c-63 431 -191 763 -404 1051 -30
41 -54 76 -54 78 0 9 61 -13 112 -41z m-477 -603 c212 -57 450 -212 570 -373
44 -58 111 -177 100 -177 -2 0 -42 29 -87 64 -297 228 -652 384 -979 428 -49
7 -89 15 -89 19 0 9 88 46 137 59 62 15 258 4 348 -20z m1665 -430 c186 -20
358 -86 460 -178 56 -50 106 -120 79 -109 -8 3 -69 24 -137 46 -333 109 -682
127 -1082 55 l-35 -7 20 22 c30 34 211 119 300 141 145 36 255 44 395 30z
m-1390 -140 c97 -10 227 -45 279 -74 22 -12 12 -14 -95 -20 -247 -15 -481 -61
-672 -132 -112 -42 -283 -125 -367 -178 -31 -21 -59 -35 -61 -33 -10 10 55
115 103 168 129 139 351 240 588 267 113 13 112 13 225 2z m833 -219 c370 -95
713 -462 734 -787 3 -45 3 -95 -1 -110 -7 -26 -11 -21 -61 73 -163 312 -401
571 -724 787 -75 50 -81 56 -54 56 16 0 64 -9 106 -19z m-568 -317 c-126 -228
-254 -561 -334 -874 -87 -336 -112 -575 -92 -863 7 -100 15 -199 18 -219 l5
-38 -93 0 c-86 0 -314 -21 -382 -36 -28 -6 -29 -6 -23 38 3 23 13 102 22 173
40 338 88 569 166 804 88 265 240 542 424 771 70 87 332 355 340 348 2 -3 -21
-49 -51 -104z m571 -345 c39 -12 98 -73 119 -121 56 -136 -49 -288 -200 -288
-202 0 -289 241 -135 373 62 53 126 64 216 36z m1437 -523 c0 -4 -65 -113
-144 -242 -140 -228 -144 -234 -176 -234 l-33 0 97 158 c53 86 123 201 156
255 57 94 60 98 81 84 11 -8 20 -18 19 -21z m-1447 -138 c36 -12 154 -70 262
-130 107 -59 205 -108 216 -108 12 0 84 21 160 46 l140 47 18 -23 c25 -30 23
-74 -4 -103 -13 -13 -80 -47 -151 -76 l-127 -51 -153 80 c-248 129 -247 130
-247 -223 l0 -244 -200 -96 c-110 -54 -202 -97 -205 -97 -3 0 -5 196 -5 435 0
356 3 441 14 463 15 29 59 73 91 90 32 18 120 14 191 -10z m310 -439 l54 -30
0 -72 c0 -40 3 -82 6 -94 5 -19 -3 -26 -55 -52 -33 -17 -63 -31 -66 -31 -3 0
-5 70 -5 155 0 85 3 155 6 155 4 0 31 -14 60 -31z m944 -89 l0 -60 -380 0
-380 0 0 23 c0 19 15 28 93 58 l92 37 288 1 287 1 0 -60z m-400 -369 c153
-104 272 -192 282 -208 48 -77 -10 -173 -105 -173 -28 0 -70 25 -215 125 -109
76 -190 125 -205 125 -13 0 -127 -50 -253 -111 -126 -62 -246 -118 -268 -125
-51 -18 -142 -18 -197 1 -57 20 -129 74 -152 114 l-19 32 124 58 c225 108 680
330 686 335 22 23 75 -6 322 -173z m-165 -326 l79 -55 -195 1 -194 0 105 54
c58 30 110 54 115 54 6 1 46 -24 90 -54z"/>
<path d="M680 387 c-19 -9 -26 -22 -28 -48 -6 -75 -95 -69 1108 -69 l1080 0
16 26 c22 32 10 73 -26 91 -36 19 -2113 19 -2150 0z"/>
<path d="M3343 390 c-43 -18 -55 -68 -23 -100 19 -19 33 -20 505 -20 l485 0
16 26 c22 32 10 73 -26 91 -30 15 -920 18 -957 3z"/>
</g>
</svg>
