<svg version="1.0" xmlns="http://www.w3.org/2000/svg"
 width="1000.000000pt" height="1000.000000pt" viewBox="0 0 1000.000000 1000.000000"
 preserveAspectRatio="xMidYMid meet">

<g transform="translate(0.000000,1000.000000) scale(0.100000,-0.100000)"
fill="#323232"  stroke="none">
<path d="M7145 7276 c-52 -13 -81 -24 -400 -149 -104 -41 -305 -120 -445 -175
-3502 -1374 -4311 -1692 -4360 -1717 -100 -51 -160 -136 -146 -209 10 -55 59
-120 121 -160 47 -31 181 -80 706 -257 l649 -218 327 208 c181 114 861 547
1513 961 652 414 1206 764 1231 777 115 57 174 -5 92 -95 -21 -23 -571 -521
-1223 -1107 -826 -742 -1186 -1072 -1187 -1088 -3 -18 160 -147 1028 -812
1140 -874 1075 -829 1219 -823 84 3 141 27 198 81 69 65 78 94 147 438 532
2669 827 4172 826 4207 0 50 -24 96 -64 126 -35 26 -155 32 -232 12z"/>
</g>
</svg>
